# xmcd CD database file
#
# Track frame offsets:
#	150
#	22182
#	44210
#
# Disc length: 881 seconds
#
# Revision: 1
# Processed by: cddbd v1.5.1PL0 Copyright (c) Steve Scherf et al.
# Submitted via: CDex 1.51
#
DISCID=28036f03
DTITLE=ひらはらあやか - ハローアゲイン、JoJo
DYEAR=2004
DGENRE=JPop
TTITLE0=Hello Again,JoJo
TTITLE1=Hello Again,JoJo 〜Acoustic Version〜
TTITLE2=Hello Again,JoJo 〜Vocal-less Track〜
EXTD=YEAR: 2004
EXTT0=
EXTT1=
EXTT2=
PLAYORDER=
